<?xml version="1.0" encoding="iso-8859-1"?>
<!-- Generator: Adobe Illustrator 19.0.0, SVG Export Plug-In . SVG Version: 6.00 Build 0)  -->
<svg version="1.1" id="Capa_1" xmlns="http://www.w3.org/2000/svg" xmlns:xlink="http://www.w3.org/1999/xlink" x="0px" y="0px"
	 viewBox="0 0 512 512" style="enable-background:new 0 0 512 512;" xml:space="preserve">
<rect x="107.67" y="91.67" style="fill:#FF7700;" width="296.67" height="356.33"/>
<rect x="256" y="91.67" style="fill:#FF4F19;" width="148.33" height="356.33"/>
<polygon style="fill:#FFDB2D;" points="428.265,121 428.265,102.879 364.997,0 138.444,0 83.735,103.398 83.735,121 "/>
<polygon style="fill:#4BBAED;" points="294.102,0 217.898,0 198.753,103.398 198.753,121 313.247,121 313.247,103.398 "/>
<g>
	<path style="fill:#FFF1AB;" d="M198.578,122.961c0,32.238-25.708,58.372-57.421,58.372s-57.422-26.134-57.422-58.372v-8.518
		h114.843V122.961z"/>
	<path style="fill:#FFF1AB;" d="M428.265,122.961c0,32.238-25.709,58.372-57.422,58.372s-57.422-26.134-57.422-58.372v-8.518
		h114.843L428.265,122.961L428.265,122.961z"/>
</g>
<polygon style="fill:#0999DB;" points="294.102,0 256,0 256,121 313.247,121 313.247,103.398 "/>
<path style="fill:#C6E9F9;" d="M313.421,122.961c0,32.238-25.708,58.372-57.421,58.372s-57.422-26.134-57.422-58.372v-8.518h114.843
	V122.961z"/>
<path style="fill:#93D6F4;" d="M256,114.444v66.889c31.713,0,57.421-26.134,57.421-58.372v-8.518L256,114.444L256,114.444z"/>
<rect x="107.67" y="435.68" style="fill:#E5E5E5;" width="296.67" height="76.32"/>
<rect x="256" y="435.68" style="fill:#CFCFCF;" width="148.33" height="76.32"/>
<rect x="241" y="435.68" style="fill:#A2A2A2;" width="30" height="30"/>
<polygon style="fill:#FFFFFF;" points="322.346,336.338 338.013,242.338 204.97,242.338 197.333,217.579 168.666,226.421 
	198.639,323.598 198.639,386.333 321.973,386.333 321.973,356.333 228.639,356.333 228.639,336.338 "/>
<g>
	<rect x="256" y="356.33" style="fill:#DDDDDD;" width="65.973" height="30"/>
	<polygon style="fill:#DDDDDD;" points="256,242.338 256,336.338 322.346,336.338 338.013,242.338 	"/>
</g>
<g>
</g>
<g>
</g>
<g>
</g>
<g>
</g>
<g>
</g>
<g>
</g>
<g>
</g>
<g>
</g>
<g>
</g>
<g>
</g>
<g>
</g>
<g>
</g>
<g>
</g>
<g>
</g>
<g>
</g>
</svg>
